<?xml version="1.0" encoding="utf-8"?>
<!-- Generator: Adobe Illustrator 19.0.0, SVG Export Plug-In . SVG Version: 6.00 Build 0)  -->
<svg version="1.1" id="Layer_1" xmlns="http://www.w3.org/2000/svg" xmlns:xlink="http://www.w3.org/1999/xlink" x="0px" y="0px"
	 viewBox="-102.5 -95.2 356.2 196.4" style="enable-background:new -102.5 -95.2 356.2 196.4;" xml:space="preserve">
<style type="text/css">
	.st0{fill:#FFFFFF;}
	.st1{fill:#1A4E84;}
	.st2{display:none;}
	.st3{display:inline;fill:#FFFFFF;}
	.st4{display:inline;fill:none;stroke:#1A4E84;stroke-width:4;stroke-miterlimit:10;stroke-dasharray:11.653,11.653;}
	.st5{fill:#FFFFFF;stroke:#FFFFFF;stroke-width:0.5;stroke-miterlimit:10;}
</style>
<g>
	<circle class="st0" cx="89.3" cy="-9.5" r="51.9"/>
	<path class="st1" d="M89.3,43.7c-23.1,0-44.4-15.2-51.1-38.4c-4-13.6-2.4-28,4.5-40.5c6.9-12.4,18.1-21.5,31.8-25.4l0,0
		c28.2-8.2,57.7,8.1,65.9,36.3c8.2,28.2-8.1,57.7-36.3,65.9C99.2,43.1,94.2,43.7,89.3,43.7z M75.2-58.1
		C48.3-50.4,32.8-22.2,40.6,4.6c7.8,26.8,35.9,42.4,62.8,34.6c26.8-7.8,42.4-35.9,34.6-62.8C130.2-50.4,102-65.9,75.2-58.1
		L75.2-58.1z"/>
</g>
<g class="st2">
	<circle class="st3" cx="90.5" cy="-10.5" r="51.9"/>
	<circle class="st4" cx="90.5" cy="-10.5" r="51.9"/>
</g>
<g>
	<circle class="st1" cx="89.3" cy="-9.5" r="51.9"/>
	<path class="st0" d="M89.3,43C66.6,43,45.6,28.1,38.9,5.1C35-8.3,36.6-22.5,43.4-34.8C50.1-47,61.2-55.9,74.7-59.8l0.1,0.5
		l-0.1-0.5c27.8-8,56.9,8,65,35.8c8,27.8-8,56.9-35.8,65C99,42.3,94.1,43,89.3,43z M75-58.9C61.8-55,50.9-46.3,44.2-34.3
		c-6.6,12-8.2,25.9-4.4,39.1c7.9,27.2,36.5,43,63.7,35.1c27.2-7.9,43-36.5,35.1-63.7C130.8-51,102.2-66.8,75-58.9L75-58.9z"/>
</g>
<g>
	<g>
		<path class="st0" d="M111.7,4.2c-2.9-8.6-8.1-23.3-2.9-31.8c3.8-6.1,10.9-5.4,15.4-0.6c1.3,1.4,2.2,2.1,3.3,3.8
			c1,1.6,5.9,4.2,5.7,6.3c-4.1-0.1-14.8-6.3-17.4-1.8c-3.2,5.6,3.6,19.4,5.5,24.4c3.5,9.1,12.6,26-4,26.3
			c-13.5,0.3-26.8,0.1-40.2-0.4c-6.1-0.2-12.9,0.1-18.9-1.8c-4.5-1.4-5.7-6.4-9.7-7.9c-1-0.9-2.4-1.3-3-2.6c-0.7-1.3-0.5-4-2.2-4.7
			c0.4,0.1,0.9,0.2,1.3,0.3c-0.1-0.2-0.3-0.4-0.4-0.6c2,0.3,3.9,0.7,5.9,1.2c3.5,1,3-0.9,6.4-1c-2.9-3.5-0.4-6.7,3.1-7.9
			c-0.4,0.1-2.3,0.8-2.6,0.3c-0.4-0.4,3.3-2.2,2.8-2c-3.5-1.3,2.8-3,3.8-3.3c-0.5,0-5.4,0.1-5.3-0.2c0.4-0.9,4.2-1.4,4.8-1.5
			c-4.1,0.7-3.8-3.2,1.1-2.7c-1.3-3.6,3.3-1.8,5.1-1.5c2.7,0.5,5.9-0.6,8.4,1c0.4-2.9,5.8,0.2,7,1.6c-0.6-0.5-1.1-1.1-1.7-1.6
			c5.7,2.2,11.8,6.8,16.6,10.5c5.1,3.9,10.2,11.9,16.4,13.7C117.5,14.9,113.5,8.7,111.7,4.2z"/>
	</g>
	<path class="st5" d="M42.9,13.2c10.8,22.4,36.5,34.4,61.2,27.3c6.9-2,13.1-5.3,18.3-9.6l0.7-1.1c0.1-0.1,0-0.3-0.1-0.3L42.9,13.2z"
		/>
</g>
</svg>
